<svg width="31" height="30" viewBox="0 0 31 30" fill="none" xmlns="http://www.w3.org/2000/svg">
<path fill-rule="evenodd" clip-rule="evenodd" d="M15 0C6.71573 0 0 6.71573 0 15C0 23.2843 6.71573 30 15 30H16C24.2843 30 31 23.2843 31 15C31 6.71573 24.2843 0 16 0H15ZM15.5 8L15.3342 8.01138C15.0425 8.05143 14.7751 8.19578 14.5815 8.41774C14.3879 8.63969 14.2813 8.92424 14.2812 9.21875V13.2796L10.2188 13.2812L10.053 13.2926C9.76123 13.3327 9.49382 13.477 9.30025 13.699C9.10667 13.9209 9.00001 14.2055 9 14.5L9.01138 14.6658C9.05143 14.9575 9.19578 15.2249 9.41774 15.4185C9.63969 15.6121 9.92424 15.7187 10.2188 15.7188L14.2812 15.7171V19.7812L14.2926 19.947C14.3327 20.2388 14.477 20.5062 14.699 20.6998C14.9209 20.8933 15.2055 21 15.5 21L15.6658 20.9886C15.9575 20.9486 16.2249 20.8042 16.4185 20.5823C16.6121 20.3603 16.7187 20.0758 16.7188 19.7812V15.7171L20.7812 15.7188L20.947 15.7074C21.2388 15.6673 21.5062 15.523 21.6998 15.301C21.8933 15.0791 22 14.7945 22 14.5L21.9886 14.3342C21.9486 14.0425 21.8042 13.7751 21.5823 13.5815C21.3603 13.3879 21.0758 13.2813 20.7812 13.2812L16.7188 13.2796V9.21875L16.7074 9.053C16.6673 8.76123 16.523 8.49382 16.301 8.30025C16.0791 8.10667 15.7945 8.00001 15.5 8Z" fill="#EC362D"/>
</svg>
